M48
; DRILL file {KiCad 5.1.4} date Mon 23 Sep 2019 11:29:30 CEST
; FORMAT={-:-/ absolute / metric / decimal}
; #@! TF.CreationDate,2019-09-23T11:29:30+02:00
; #@! TF.GenerationSoftware,Kicad,Pcbnew,5.1.4
FMAT,2
METRIC
T1C0.500
T2C0.600
%
G90
G05
T1
X-4.5Y52.15
X-4.5Y50.9
X-4.5Y72.15
X-4.5Y22.15
X-4.5Y20.9
X-4.5Y62.15
X-4.5Y60.9
X-4.5Y12.15
X-4.5Y10.9
X-4.5Y42.15
X-4.5Y40.9
X-4.5Y32.15
X-4.5Y30.9
X-4.5Y70.9
X-4.5Y2.15
X-4.5Y0.9
T2
X-40.0Y53.0
X-40.0Y50.0
X-30.0Y53.0
X-30.0Y50.0
X-20.0Y53.0
X-20.0Y50.0
X-10.0Y53.0
X-10.0Y50.0
X0.0Y53.0
X0.0Y50.0
X-40.0Y3.0
X-40.0Y0.0
X-30.0Y3.0
X-30.0Y0.0
X-20.0Y3.0
X-20.0Y0.0
X-10.0Y3.0
X-10.0Y0.0
X0.0Y3.0
X0.0Y0.0
X-40.0Y63.0
X-40.0Y60.0
X-30.0Y63.0
X-30.0Y60.0
X-20.0Y63.0
X-20.0Y60.0
X-10.0Y63.0
X-10.0Y60.0
X0.0Y63.0
X0.0Y60.0
X-40.0Y23.0
X-40.0Y20.0
X-30.0Y23.0
X-30.0Y20.0
X-20.0Y23.0
X-20.0Y20.0
X-10.0Y23.0
X-10.0Y20.0
X0.0Y23.0
X0.0Y20.0
X-40.0Y43.0
X-40.0Y40.0
X-30.0Y43.0
X-30.0Y40.0
X-20.0Y43.0
X-20.0Y40.0
X-10.0Y43.0
X-10.0Y40.0
X0.0Y43.0
X0.0Y40.0
X-40.0Y73.0
X-40.0Y70.0
X-30.0Y73.0
X-30.0Y70.0
X-20.0Y73.0
X-20.0Y70.0
X-10.0Y73.0
X-10.0Y70.0
X0.0Y73.0
X0.0Y70.0
X-40.0Y13.0
X-40.0Y10.0
X-30.0Y13.0
X-30.0Y10.0
X-20.0Y13.0
X-20.0Y10.0
X-10.0Y13.0
X-10.0Y10.0
X0.0Y13.0
X0.0Y10.0
X-40.0Y33.0
X-40.0Y30.0
X-30.0Y33.0
X-30.0Y30.0
X-20.0Y33.0
X-20.0Y30.0
X-10.0Y33.0
X-10.0Y30.0
X0.0Y33.0
X0.0Y30.0
T0
M30
