G04 #@! TF.GenerationSoftware,KiCad,Pcbnew,5.1.4*
G04 #@! TF.CreationDate,2019-09-24T14:00:33+02:00*
G04 #@! TF.ProjectId,ntcHolder,6e746348-6f6c-4646-9572-2e6b69636164,rev?*
G04 #@! TF.SameCoordinates,PXd619920PY78a3ca0*
G04 #@! TF.FileFunction,Profile,NP*
%FSLAX46Y46*%
G04 Gerber Fmt 4.6, Leading zero omitted, Abs format (unit mm)*
G04 Created by KiCad (PCBNEW 5.1.4) date 2019-09-24 14:00:33*
%MOMM*%
%LPD*%
G04 APERTURE LIST*
%ADD10C,0.050000*%
G04 APERTURE END LIST*
D10*
X-77000000Y4500000D02*
X3000000Y4500000D01*
X-77000000Y14500000D02*
X3000000Y14500000D01*
X-77000000Y24500000D02*
X3000000Y24500000D01*
X-77000000Y34500000D02*
X3000000Y34500000D01*
X-77000000Y44500000D02*
X3000000Y44500000D01*
X-77000000Y54500000D02*
X3000000Y54500000D01*
X-77000000Y64500000D02*
X3000000Y64500000D01*
X-77000000Y-1500000D02*
X-77000000Y4500000D01*
X-77000000Y8500000D02*
X-77000000Y14500000D01*
X-77000000Y18500000D02*
X-77000000Y24500000D01*
X-77000000Y28500000D02*
X-77000000Y34500000D01*
X-77000000Y38500000D02*
X-77000000Y44500000D01*
X-77000000Y48500000D02*
X-77000000Y54500000D01*
X-77000000Y58500000D02*
X-77000000Y64500000D01*
X3000000Y-1500000D02*
X-77000000Y-1500000D01*
X3000000Y8500000D02*
X-77000000Y8500000D01*
X3000000Y18500000D02*
X-77000000Y18500000D01*
X3000000Y28500000D02*
X-77000000Y28500000D01*
X3000000Y38500000D02*
X-77000000Y38500000D01*
X3000000Y48500000D02*
X-77000000Y48500000D01*
X3000000Y58500000D02*
X-77000000Y58500000D01*
X3000000Y4500000D02*
X3000000Y-1500000D01*
X3000000Y14500000D02*
X3000000Y8500000D01*
X3000000Y24500000D02*
X3000000Y18500000D01*
X3000000Y34500000D02*
X3000000Y28500000D01*
X3000000Y44500000D02*
X3000000Y38500000D01*
X3000000Y54500000D02*
X3000000Y48500000D01*
X3000000Y64500000D02*
X3000000Y58500000D01*
M02*
