<?xml version="1.0" standalone="no"?>
 <!DOCTYPE svg PUBLIC "-//W3C//DTD SVG 1.1//EN" 
 "http://www.w3.org/Graphics/SVG/1.1/DTD/svg11.dtd"> 
<svg xmlns="http://www.w3.org/2000/svg" version="1.1" 
    width="29.7002cm" height="21.0007cm" viewBox="0 0 116930 82680 ">
<title>SVG Picture created as ntcHolder-Edge_Cuts.svg date 2019/09/23 11:33:51 </title>
  <desc>Picture generated by PCBNEW </desc>
<g style="fill:#000000; fill-opacity:1;stroke:#000000; stroke-opacity:1;
stroke-linecap:round; stroke-linejoin:round; "
 transform="translate(0 0) scale(1 1)">
</g>
<g style="fill:#000000; fill-opacity:0.0; 
stroke:#000000; stroke-width:-0.000393701; stroke-opacity:1; 
stroke-linecap:round; stroke-linejoin:round;">
</g>
<g style="fill:#000000; fill-opacity:0.0; 
stroke:#000000; stroke-width:19.685; stroke-opacity:1; 
stroke-linecap:round; stroke-linejoin:round;">
<path d="M58070 48031
L89566 48031
" />
<path d="M58070 44094
L89566 44094
" />
<path d="M58070 40157
L89566 40157
" />
<path d="M58070 36220
L89566 36220
" />
<path d="M58070 32283
L89566 32283
" />
<path d="M58070 28346
L89566 28346
" />
<path d="M58070 24409
L89566 24409
" />
<path d="M58070 50393
L58070 48031
" />
<path d="M58070 46456
L58070 44094
" />
<path d="M58070 42519
L58070 40157
" />
<path d="M58070 38582
L58070 36220
" />
<path d="M58070 34645
L58070 32283
" />
<path d="M58070 30708
L58070 28346
" />
<path d="M58070 26771
L58070 24409
" />
<path d="M89566 50393
L58070 50393
" />
<path d="M89566 46456
L58070 46456
" />
<path d="M89566 42519
L58070 42519
" />
<path d="M89566 38582
L58070 38582
" />
<path d="M89566 34645
L58070 34645
" />
<path d="M89566 30708
L58070 30708
" />
<path d="M89566 26771
L58070 26771
" />
<path d="M89566 48031
L89566 50393
" />
<path d="M89566 44094
L89566 46456
" />
<path d="M89566 40157
L89566 42519
" />
<path d="M89566 36220
L89566 38582
" />
<path d="M89566 32283
L89566 34645
" />
<path d="M89566 28346
L89566 30708
" />
<path d="M89566 24409
L89566 26771
" />
<g >
</g>
<g >
</g>
<g >
</g>
<g >
</g>
<g >
</g>
<g >
</g>
<g >
</g>
<g >
</g>
<g >
</g>
<g >
</g>
<g >
</g>
<g >
</g>
<g >
</g>
<g >
</g>
<g >
</g>
<g >
</g>
<g >
</g>
<g >
</g>
<g >
</g>
<g >
</g>
<g >
</g>
</g> 
</svg>
