<?xml version="1.0" standalone="no"?>
<!DOCTYPE svg PUBLIC "-//W3C//DTD SVG 1.1//EN"
"http://www.w3.org/Graphics/SVG/1.1/DTD/svg11.dtd">
<svg width="310.186" height="257.272" viewBox="0 0 6462.2 5359.84" version="1.1"
xmlns="http://www.w3.org/2000/svg"
xmlns:xlink="http://www.w3.org/1999/xlink">
<g fill-rule="evenodd"><path d="M 6380.71,4805.91 L 6380.71,5278.35 L 81.4962,5278.35 L 81.4962,4805.91 L 6380.71,4805.91 z " style="fill-opacity:1.000000;fill:rgb(103,198,105);stroke:rgb(0,0,0);stroke-width:2"/></g>
<g fill-rule="evenodd"><path d="M 6380.71,4018.5 L 6380.71,4490.95 L 81.4962,4490.95 L 81.4962,4018.5 L 6380.71,4018.5 z " style="fill-opacity:1.000000;fill:rgb(115,81,255);stroke:rgb(0,0,0);stroke-width:2"/></g>
<g fill-rule="evenodd"><path d="M 6380.71,3231.1 L 6380.71,3703.54 L 81.4962,3703.54 L 81.4962,3231.1 L 6380.71,3231.1 z " style="fill-opacity:1.000000;fill:rgb(74,236,41);stroke:rgb(0,0,0);stroke-width:2"/></g>
<g fill-rule="evenodd"><path d="M 6380.71,2443.7 L 6380.71,2916.14 L 81.4962,2916.14 L 81.4962,2443.7 L 6380.71,2443.7 z " style="fill-opacity:1.000000;fill:rgb(205,186,171);stroke:rgb(0,0,0);stroke-width:2"/></g>
<g fill-rule="evenodd"><path d="M 6380.71,1656.3 L 6380.71,2128.74 L 81.4962,2128.74 L 81.4962,1656.3 L 6380.71,1656.3 z " style="fill-opacity:1.000000;fill:rgb(242,251,227);stroke:rgb(0,0,0);stroke-width:2"/></g>
<g fill-rule="evenodd"><path d="M 6380.71,868.898 L 6380.71,1341.34 L 81.4962,1341.34 L 81.4962,868.898 L 6380.71,868.898 z " style="fill-opacity:1.000000;fill:rgb(70,124,194);stroke:rgb(0,0,0);stroke-width:2"/></g>
<g fill-rule="evenodd"><path d="M 6380.71,81.4962 L 6380.71,553.938 L 81.4962,553.938 L 81.4962,81.4962 L 6380.71,81.4962 z " style="fill-opacity:1.000000;fill:rgb(84,248,27);stroke:rgb(0,0,0);stroke-width:2"/></g>
</svg>
