<?xml version="1.0" standalone="no"?>
<!DOCTYPE svg PUBLIC "-//W3C//DTD SVG 1.1//EN"
"http://www.w3.org/Graphics/SVG/1.1/DTD/svg11.dtd">
<svg width="310.186" height="257.272" viewBox="0 0 6462.2 5359.84" version="1.1"
xmlns="http://www.w3.org/2000/svg"
xmlns:xlink="http://www.w3.org/1999/xlink">
<g fill-rule="evenodd"><path d="M 9.09495e-13,4648.43 L 6462.2,4648.43 L 6462.2,5359.84 L 9.09495e-13,5359.84 L 9.09495e-13,4648.43 z " style="fill-opacity:0.200000;fill:rgb(103,198,105);"/></g>
<g fill-rule="evenodd"><path d="M 9.09495e-13,3861.02 L 6462.2,3861.02 L 6462.2,4648.43 L 9.09495e-13,4648.43 L 9.09495e-13,3861.02 z " style="fill-opacity:0.200000;fill:rgb(115,81,255);"/></g>
<g fill-rule="evenodd"><path d="M 9.09495e-13,3073.62 L 6462.2,3073.62 L 6462.2,3861.02 L 9.09495e-13,3861.02 L 9.09495e-13,3073.62 z " style="fill-opacity:0.200000;fill:rgb(74,236,41);"/></g>
<g fill-rule="evenodd"><path d="M 9.09495e-13,2286.22 L 6462.2,2286.22 L 6462.2,3073.62 L 9.09495e-13,3073.62 L 9.09495e-13,2286.22 z " style="fill-opacity:0.200000;fill:rgb(205,186,171);"/></g>
<g fill-rule="evenodd"><path d="M 9.09495e-13,1498.82 L 6462.2,1498.82 L 6462.2,2286.22 L 9.09495e-13,2286.22 L 9.09495e-13,1498.82 z " style="fill-opacity:0.200000;fill:rgb(242,251,227);"/></g>
<g fill-rule="evenodd"><path d="M 9.09495e-13,711.418 L 6462.2,711.418 L 6462.2,1498.82 L 9.09495e-13,1498.82 L 9.09495e-13,711.418 z " style="fill-opacity:0.200000;fill:rgb(70,124,194);"/></g>
<g fill-rule="evenodd"><path d="M 9.09495e-13,711.418 L 9.09495e-13,9.09495e-13 L 6462.2,9.09495e-13 L 6462.2,711.418 L 9.09495e-13,711.418 z " style="fill-opacity:0.200000;fill:rgb(84,248,27);"/></g>
<polyline points="41.7342,5278.35 41.7342,4805.91 42.4982,4798.15 44.7602,4790.69 48.4342,4783.82 53.3802,4777.79 59.4062,4772.84 66.2802,4769.17 73.7402,4766.91 81.4962,4766.14 6380.71,4766.14 6388.46,4766.91 6395.92,4769.17 6402.8,4772.84 6408.82,4777.79 6413.77,4783.82 6417.44,4790.69 6419.71,4798.15 6420.47,4805.91 6420.47,5278.35 6419.71,5286.1 6417.44,5293.56 6413.77,5300.44 6408.82,5306.46 6402.8,5311.41 6395.92,5315.08 6388.46,5317.34 6380.71,5318.11 81.4962,5318.11 73.7402,5317.34 66.2802,5315.08 59.4062,5311.41 53.3802,5306.46 48.4342,5300.44 44.7602,5293.56 42.4982,5286.1 41.7342,5278.35" style="stroke:rgb(103,198,105);stroke-width:79.527559;fill:none;stroke-opacity:0.5;stroke-linecap:round;stroke-linejoin:round;;fill:none"/>
<polyline points="41.7342,5278.35 41.7342,4805.91 42.4982,4798.15 44.7602,4790.69 48.4342,4783.82 53.3802,4777.79 59.4062,4772.84 66.2802,4769.17 73.7402,4766.91 81.4962,4766.14 6380.71,4766.14 6388.46,4766.91 6395.92,4769.17 6402.8,4772.84 6408.82,4777.79 6413.77,4783.82 6417.44,4790.69 6419.71,4798.15 6420.47,4805.91 6420.47,5278.35 6419.71,5286.1 6417.44,5293.56 6413.77,5300.44 6408.82,5306.46 6402.8,5311.41 6395.92,5315.08 6388.46,5317.34 6380.71,5318.11 81.4962,5318.11 73.7402,5317.34 66.2802,5315.08 59.4062,5311.41 53.3802,5306.46 48.4342,5300.44 44.7602,5293.56 42.4982,5286.1 41.7342,5278.35" style="stroke:rgb(0,0,0);stroke-width:1px;fill:none;stroke-opacity:1;stroke-linecap:round;stroke-linejoin:round;;fill:none"/>
<polyline points="41.7342,4490.95 41.7342,4018.5 42.4982,4010.75 44.7602,4003.29 48.4342,3996.41 53.3802,3990.39 59.4062,3985.44 66.2802,3981.77 73.7402,3979.51 81.4962,3978.74 6380.71,3978.74 6388.46,3979.51 6395.92,3981.77 6402.8,3985.44 6408.82,3990.39 6413.77,3996.41 6417.44,4003.29 6419.71,4010.75 6420.47,4018.5 6420.47,4490.95 6419.71,4498.7 6417.44,4506.16 6413.77,4513.04 6408.82,4519.06 6402.8,4524.01 6395.92,4527.68 6388.46,4529.95 6380.71,4530.71 81.4962,4530.71 73.7402,4529.95 66.2802,4527.68 59.4062,4524.01 53.3802,4519.06 48.4342,4513.04 44.7602,4506.16 42.4982,4498.7 41.7342,4490.95" style="stroke:rgb(115,81,255);stroke-width:79.527559;fill:none;stroke-opacity:0.5;stroke-linecap:round;stroke-linejoin:round;;fill:none"/>
<polyline points="41.7342,4490.95 41.7342,4018.5 42.4982,4010.75 44.7602,4003.29 48.4342,3996.41 53.3802,3990.39 59.4062,3985.44 66.2802,3981.77 73.7402,3979.51 81.4962,3978.74 6380.71,3978.74 6388.46,3979.51 6395.92,3981.77 6402.8,3985.44 6408.82,3990.39 6413.77,3996.41 6417.44,4003.29 6419.71,4010.75 6420.47,4018.5 6420.47,4490.95 6419.71,4498.7 6417.44,4506.16 6413.77,4513.04 6408.82,4519.06 6402.8,4524.01 6395.92,4527.68 6388.46,4529.95 6380.71,4530.71 81.4962,4530.71 73.7402,4529.95 66.2802,4527.68 59.4062,4524.01 53.3802,4519.06 48.4342,4513.04 44.7602,4506.16 42.4982,4498.7 41.7342,4490.95" style="stroke:rgb(0,0,0);stroke-width:1px;fill:none;stroke-opacity:1;stroke-linecap:round;stroke-linejoin:round;;fill:none"/>
<polyline points="41.7342,3703.54 41.7342,3231.1 42.4982,3223.35 44.7602,3215.89 48.4342,3209.01 53.3802,3202.99 59.4062,3198.04 66.2802,3194.37 73.7402,3192.11 81.4962,3191.34 6380.71,3191.34 6388.46,3192.11 6395.92,3194.37 6402.8,3198.04 6408.82,3202.99 6413.77,3209.01 6417.44,3215.89 6419.71,3223.35 6420.47,3231.1 6420.47,3703.54 6419.71,3711.3 6417.44,3718.76 6413.77,3725.64 6408.82,3731.66 6402.8,3736.61 6395.92,3740.28 6388.46,3742.54 6380.71,3743.31 81.4962,3743.31 73.7402,3742.54 66.2802,3740.28 59.4062,3736.61 53.3802,3731.66 48.4342,3725.64 44.7602,3718.76 42.4982,3711.3 41.7342,3703.54" style="stroke:rgb(74,236,41);stroke-width:79.527559;fill:none;stroke-opacity:0.5;stroke-linecap:round;stroke-linejoin:round;;fill:none"/>
<polyline points="41.7342,3703.54 41.7342,3231.1 42.4982,3223.35 44.7602,3215.89 48.4342,3209.01 53.3802,3202.99 59.4062,3198.04 66.2802,3194.37 73.7402,3192.11 81.4962,3191.34 6380.71,3191.34 6388.46,3192.11 6395.92,3194.37 6402.8,3198.04 6408.82,3202.99 6413.77,3209.01 6417.44,3215.89 6419.71,3223.35 6420.47,3231.1 6420.47,3703.54 6419.71,3711.3 6417.44,3718.76 6413.77,3725.64 6408.82,3731.66 6402.8,3736.61 6395.92,3740.28 6388.46,3742.54 6380.71,3743.31 81.4962,3743.31 73.7402,3742.54 66.2802,3740.28 59.4062,3736.61 53.3802,3731.66 48.4342,3725.64 44.7602,3718.76 42.4982,3711.3 41.7342,3703.54" style="stroke:rgb(0,0,0);stroke-width:1px;fill:none;stroke-opacity:1;stroke-linecap:round;stroke-linejoin:round;;fill:none"/>
<polyline points="41.7342,2916.14 41.7342,2443.7 42.4982,2435.95 44.7602,2428.49 48.4342,2421.61 53.3802,2415.59 59.4062,2410.64 66.2802,2406.97 73.7402,2404.7 81.4962,2403.94 6380.71,2403.94 6388.46,2404.7 6395.92,2406.97 6402.8,2410.64 6408.82,2415.59 6413.77,2421.61 6417.44,2428.49 6419.71,2435.95 6420.47,2443.7 6420.47,2916.14 6419.71,2923.9 6417.44,2931.36 6413.77,2938.23 6408.82,2944.26 6402.8,2949.21 6395.92,2952.88 6388.46,2955.14 6380.71,2955.91 81.4962,2955.91 73.7402,2955.14 66.2802,2952.88 59.4062,2949.21 53.3802,2944.26 48.4342,2938.23 44.7602,2931.36 42.4982,2923.9 41.7342,2916.14" style="stroke:rgb(205,186,171);stroke-width:79.527559;fill:none;stroke-opacity:0.5;stroke-linecap:round;stroke-linejoin:round;;fill:none"/>
<polyline points="41.7342,2916.14 41.7342,2443.7 42.4982,2435.95 44.7602,2428.49 48.4342,2421.61 53.3802,2415.59 59.4062,2410.64 66.2802,2406.97 73.7402,2404.7 81.4962,2403.94 6380.71,2403.94 6388.46,2404.7 6395.92,2406.97 6402.8,2410.64 6408.82,2415.59 6413.77,2421.61 6417.44,2428.49 6419.71,2435.95 6420.47,2443.7 6420.47,2916.14 6419.71,2923.9 6417.44,2931.36 6413.77,2938.23 6408.82,2944.26 6402.8,2949.21 6395.92,2952.88 6388.46,2955.14 6380.71,2955.91 81.4962,2955.91 73.7402,2955.14 66.2802,2952.88 59.4062,2949.21 53.3802,2944.26 48.4342,2938.23 44.7602,2931.36 42.4982,2923.9 41.7342,2916.14" style="stroke:rgb(0,0,0);stroke-width:1px;fill:none;stroke-opacity:1;stroke-linecap:round;stroke-linejoin:round;;fill:none"/>
<polyline points="41.7342,2128.74 41.7342,1656.3 42.4982,1648.54 44.7602,1641.08 48.4342,1634.21 53.3802,1628.18 59.4062,1623.24 66.2802,1619.56 73.7402,1617.3 81.4962,1616.54 6380.71,1616.54 6388.46,1617.3 6395.92,1619.56 6402.8,1623.24 6408.82,1628.18 6413.77,1634.21 6417.44,1641.08 6419.71,1648.54 6420.47,1656.3 6420.47,2128.74 6419.71,2136.5 6417.44,2143.96 6413.77,2150.83 6408.82,2156.86 6402.8,2161.8 6395.92,2165.48 6388.46,2167.74 6380.71,2168.5 81.4962,2168.5 73.7402,2167.74 66.2802,2165.48 59.4062,2161.8 53.3802,2156.86 48.4342,2150.83 44.7602,2143.96 42.4982,2136.5 41.7342,2128.74" style="stroke:rgb(242,251,227);stroke-width:79.527559;fill:none;stroke-opacity:0.5;stroke-linecap:round;stroke-linejoin:round;;fill:none"/>
<polyline points="41.7342,2128.74 41.7342,1656.3 42.4982,1648.54 44.7602,1641.08 48.4342,1634.21 53.3802,1628.18 59.4062,1623.24 66.2802,1619.56 73.7402,1617.3 81.4962,1616.54 6380.71,1616.54 6388.46,1617.3 6395.92,1619.56 6402.8,1623.24 6408.82,1628.18 6413.77,1634.21 6417.44,1641.08 6419.71,1648.54 6420.47,1656.3 6420.47,2128.74 6419.71,2136.5 6417.44,2143.96 6413.77,2150.83 6408.82,2156.86 6402.8,2161.8 6395.92,2165.48 6388.46,2167.74 6380.71,2168.5 81.4962,2168.5 73.7402,2167.74 66.2802,2165.48 59.4062,2161.8 53.3802,2156.86 48.4342,2150.83 44.7602,2143.96 42.4982,2136.5 41.7342,2128.74" style="stroke:rgb(0,0,0);stroke-width:1px;fill:none;stroke-opacity:1;stroke-linecap:round;stroke-linejoin:round;;fill:none"/>
<polyline points="41.7342,1341.34 41.7342,868.898 42.4982,861.142 44.7602,853.682 48.4342,846.808 53.3802,840.782 59.4062,835.836 66.2802,832.162 73.7402,829.9 81.4962,829.136 6380.71,829.136 6388.46,829.9 6395.92,832.162 6402.8,835.836 6408.82,840.782 6413.77,846.808 6417.44,853.682 6419.71,861.142 6420.47,868.898 6420.47,1341.34 6419.71,1349.1 6417.44,1356.56 6413.77,1363.43 6408.82,1369.46 6402.8,1374.4 6395.92,1378.08 6388.46,1380.34 6380.71,1381.1 81.4962,1381.1 73.7402,1380.34 66.2802,1378.08 59.4062,1374.4 53.3802,1369.46 48.4342,1363.43 44.7602,1356.56 42.4982,1349.1 41.7342,1341.34" style="stroke:rgb(70,124,194);stroke-width:79.527559;fill:none;stroke-opacity:0.5;stroke-linecap:round;stroke-linejoin:round;;fill:none"/>
<polyline points="41.7342,1341.34 41.7342,868.898 42.4982,861.142 44.7602,853.682 48.4342,846.808 53.3802,840.782 59.4062,835.836 66.2802,832.162 73.7402,829.9 81.4962,829.136 6380.71,829.136 6388.46,829.9 6395.92,832.162 6402.8,835.836 6408.82,840.782 6413.77,846.808 6417.44,853.682 6419.71,861.142 6420.47,868.898 6420.47,1341.34 6419.71,1349.1 6417.44,1356.56 6413.77,1363.43 6408.82,1369.46 6402.8,1374.4 6395.92,1378.08 6388.46,1380.34 6380.71,1381.1 81.4962,1381.1 73.7402,1380.34 66.2802,1378.08 59.4062,1374.4 53.3802,1369.46 48.4342,1363.43 44.7602,1356.56 42.4982,1349.1 41.7342,1341.34" style="stroke:rgb(0,0,0);stroke-width:1px;fill:none;stroke-opacity:1;stroke-linecap:round;stroke-linejoin:round;;fill:none"/>
<polyline points="41.7342,553.938 41.7342,81.4962 42.4982,73.7402 44.7602,66.2802 48.4342,59.4062 53.3802,53.3802 59.4062,48.4342 66.2802,44.7602 73.7402,42.4982 81.4962,41.7342 6380.71,41.7342 6388.46,42.4982 6395.92,44.7602 6402.8,48.4342 6408.82,53.3802 6413.77,59.4062 6417.44,66.2802 6419.71,73.7402 6420.47,81.4962 6420.47,553.938 6419.71,561.696 6417.44,569.156 6413.77,576.03 6408.82,582.056 6402.8,587.002 6395.92,590.676 6388.46,592.938 6380.71,593.702 81.4962,593.702 73.7402,592.938 66.2802,590.676 59.4062,587.002 53.3802,582.056 48.4342,576.03 44.7602,569.156 42.4982,561.696 41.7342,553.938" style="stroke:rgb(84,248,27);stroke-width:79.527559;fill:none;stroke-opacity:0.5;stroke-linecap:round;stroke-linejoin:round;;fill:none"/>
<polyline points="41.7342,553.938 41.7342,81.4962 42.4982,73.7402 44.7602,66.2802 48.4342,59.4062 53.3802,53.3802 59.4062,48.4342 66.2802,44.7602 73.7402,42.4982 81.4962,41.7342 6380.71,41.7342 6388.46,42.4982 6395.92,44.7602 6402.8,48.4342 6408.82,53.3802 6413.77,59.4062 6417.44,66.2802 6419.71,73.7402 6420.47,81.4962 6420.47,553.938 6419.71,561.696 6417.44,569.156 6413.77,576.03 6408.82,582.056 6402.8,587.002 6395.92,590.676 6388.46,592.938 6380.71,593.702 81.4962,593.702 73.7402,592.938 66.2802,590.676 59.4062,587.002 53.3802,582.056 48.4342,576.03 44.7602,569.156 42.4982,561.696 41.7342,553.938" style="stroke:rgb(0,0,0);stroke-width:1px;fill:none;stroke-opacity:1;stroke-linecap:round;stroke-linejoin:round;;fill:none"/>
<g fill-rule="evenodd"><path d="M 6380.71,4805.91 L 6380.71,5278.35 L 81.4962,5278.35 L 81.4962,4805.91 L 6380.71,4805.91 z " style="fill-opacity:1.000000;fill:rgb(103,198,105);stroke:rgb(0,0,0);stroke-width:2"/></g>
<g fill-rule="evenodd"><path d="M 6380.71,4018.5 L 6380.71,4490.95 L 81.4962,4490.95 L 81.4962,4018.5 L 6380.71,4018.5 z " style="fill-opacity:1.000000;fill:rgb(115,81,255);stroke:rgb(0,0,0);stroke-width:2"/></g>
<g fill-rule="evenodd"><path d="M 6380.71,3231.1 L 6380.71,3703.54 L 81.4962,3703.54 L 81.4962,3231.1 L 6380.71,3231.1 z " style="fill-opacity:1.000000;fill:rgb(74,236,41);stroke:rgb(0,0,0);stroke-width:2"/></g>
<g fill-rule="evenodd"><path d="M 6380.71,2443.7 L 6380.71,2916.14 L 81.4962,2916.14 L 81.4962,2443.7 L 6380.71,2443.7 z " style="fill-opacity:1.000000;fill:rgb(205,186,171);stroke:rgb(0,0,0);stroke-width:2"/></g>
<g fill-rule="evenodd"><path d="M 6380.71,1656.3 L 6380.71,2128.74 L 81.4962,2128.74 L 81.4962,1656.3 L 6380.71,1656.3 z " style="fill-opacity:1.000000;fill:rgb(242,251,227);stroke:rgb(0,0,0);stroke-width:2"/></g>
<g fill-rule="evenodd"><path d="M 6380.71,868.898 L 6380.71,1341.34 L 81.4962,1341.34 L 81.4962,868.898 L 6380.71,868.898 z " style="fill-opacity:1.000000;fill:rgb(70,124,194);stroke:rgb(0,0,0);stroke-width:2"/></g>
<g fill-rule="evenodd"><path d="M 6380.71,81.4962 L 6380.71,553.938 L 81.4962,553.938 L 81.4962,81.4962 L 6380.71,81.4962 z " style="fill-opacity:1.000000;fill:rgb(84,248,27);stroke:rgb(0,0,0);stroke-width:2"/></g>
</svg>
